<?xml version="1.0" standalone="no"?>
<!DOCTYPE svg PUBLIC "-//W3C//DTD SVG 20010904//EN"
 "http://www.w3.org/TR/2001/REC-SVG-20010904/DTD/svg10.dtd">
<svg version="1.0" xmlns="http://www.w3.org/2000/svg"
 width="125.000000pt" height="125.000000pt" viewBox="0 0 125.000000 125.000000"
 preserveAspectRatio="xMidYMid meet">
<metadata>
Created by potrace 1.14, written by Peter Selinger 2001-2017
</metadata>
<g transform="translate(0.000000,125.000000) scale(0.100000,-0.100000)"
fill="#000000" stroke="none">
<path d="M636 1235 c4 -9 11 -14 16 -13 15 5 11 23 -6 26 -11 2 -14 -2 -10
-13z"/>
<path d="M690 1240 c0 -5 7 -10 15 -10 8 0 15 5 15 10 0 6 -7 10 -15 10 -8 0
-15 -4 -15 -10z"/>
<path d="M502 1220 c-129 -46 -225 -128 -278 -234 -35 -72 -36 -75 -35 -195 1
-151 -6 -171 -103 -271 -105 -108 -111 -153 -29 -257 43 -56 45 -60 40 -111
-4 -39 -2 -52 8 -52 24 0 34 85 13 123 -6 12 -29 44 -51 72 -35 45 -39 54 -34
93 4 39 14 54 75 116 100 100 113 134 110 283 -3 116 -2 120 30 185 21 43 51
83 84 113 59 53 171 113 230 123 22 4 40 12 39 17 -1 17 -44 15 -99 -5z"/>
<path d="M730 1213 c0 -6 26 -17 58 -26 118 -33 197 -111 242 -239 22 -62 40
-197 40 -298 0 -97 14 -134 77 -202 l56 -61 -8 -81 c-10 -115 -9 -126 10 -145
16 -15 17 -14 11 18 -3 18 -1 62 5 96 17 90 6 128 -51 189 -27 29 -54 65 -60
80 -6 16 -15 97 -20 180 -12 212 -40 295 -132 392 -28 29 -69 61 -96 72 -56
24 -132 38 -132 25z"/>
<path d="M519 1100 c-50 -26 -114 -102 -135 -158 -10 -26 -28 -58 -42 -71 -22
-22 -24 -30 -19 -82 5 -54 4 -58 -19 -63 -32 -8 -42 -51 -21 -89 10 -16 15
-38 11 -52 -8 -31 30 -59 60 -43 16 9 22 8 31 -7 27 -47 61 -76 106 -92 51
-19 62 -36 31 -52 -10 -5 -24 -28 -31 -50 -15 -51 -35 -64 -140 -90 -101 -25
-146 -51 -170 -100 -22 -44 -44 -131 -36 -140 4 -3 192 -7 418 -9 393 -3 580
5 617 28 23 14 -7 95 -57 150 -51 56 -99 75 -211 84 -41 3 -80 10 -88 17 -8 6
-17 30 -21 52 -3 22 -15 49 -25 59 -20 20 -16 38 9 38 27 0 98 47 113 74 9 18
22 26 40 26 32 0 50 17 50 46 0 12 7 24 15 28 43 16 36 98 -9 116 -23 8 -24
12 -19 70 5 55 4 62 -14 66 -13 4 -25 20 -33 47 -40 136 -145 229 -229 202
-34 -11 -24 -20 22 -20 72 0 129 -53 168 -154 l19 -51 -78 0 c-64 0 -88 -5
-128 -25 -61 -31 -61 -31 -117 1 -32 17 -68 27 -116 31 -39 3 -71 10 -71 15 0
24 33 82 70 122 50 54 113 82 153 67 21 -8 27 -8 27 3 0 31 -77 35 -131 6z
m141 -350 c0 -30 57 -88 98 -100 56 -15 84 -12 136 14 76 39 94 41 108 12 17
-39 -5 -59 -53 -51 -36 6 -39 5 -44 -22 -3 -15 -15 -47 -25 -69 -21 -48 -83
-84 -143 -84 -41 0 -58 -15 -27 -25 49 -15 -5 -35 -97 -35 -36 0 -43 3 -43 20
0 16 7 20 35 20 62 0 37 18 -35 25 -87 9 -127 34 -159 100 -13 28 -28 57 -32
65 -3 8 -15 14 -25 13 -33 -3 -55 16 -52 45 4 38 29 38 79 3 72 -53 164 -40
223 29 14 18 26 38 26 46 0 8 7 14 15 14 8 0 15 -9 15 -20z m-310 -170 c0 -11
-7 -20 -15 -20 -15 0 -21 21 -8 33 12 13 23 7 23 -13z m609 -17 c-15 -18 -34
-1 -25 22 5 14 9 15 21 5 12 -10 13 -16 4 -27z"/>
<path d="M630 720 c0 -11 5 -20 10 -20 6 0 10 9 10 20 0 11 -4 20 -10 20 -5 0
-10 -9 -10 -20z"/>
<path d="M330 670 c0 -5 9 -10 20 -10 11 0 20 5 20 10 0 6 -9 10 -20 10 -11 0
-20 -4 -20 -10z"/>
<path d="M947 674 c-14 -14 -7 -25 13 -22 12 2 21 8 21 13 0 12 -24 18 -34 9z"/>
<path d="M635 640 c-4 -6 -3 -16 3 -22 6 -6 12 -6 17 2 4 6 3 16 -3 22 -6 6
-12 6 -17 -2z"/>
<path d="M426 621 c-4 -7 -5 -15 -2 -18 9 -9 19 4 14 18 -4 11 -6 11 -12 0z"/>
<path d="M847 623 c-3 -5 -2 -15 2 -22 5 -7 11 -9 14 -4 3 5 2 15 -2 22 -5 7
-11 9 -14 4z"/>
<path d="M460 610 c0 -5 5 -10 10 -10 6 0 10 5 10 10 0 6 -4 10 -10 10 -5 0
-10 -4 -10 -10z"/>
<path d="M490 605 c0 -8 5 -15 10 -15 6 0 10 7 10 15 0 8 -4 15 -10 15 -5 0
-10 -7 -10 -15z"/>
<path d="M780 606 c0 -9 5 -16 10 -16 6 0 10 4 10 9 0 6 -4 13 -10 16 -5 3
-10 -1 -10 -9z"/>
<path d="M816 611 c-4 -7 -5 -15 -2 -18 9 -9 19 4 14 18 -4 11 -6 11 -12 0z"/>
</g>
</svg>
